<svg id="logo_text" width="100px" height="100px" viewBox="0 0 100 100" version="1.1" xmlns="http://www.w3.org/2000/svg" xmlns:xlink="http://www.w3.org/1999/xlink">
    <path fill="currentColor" d="M2.06475176,1.88723764 L5.50280224,1.88723764 L5.50280224,6.48896283 L8.12121589,6.48896283 L8.12121589,9.3984407 L5.50280224,9.3984407 L5.50280224,14.8733585 C5.50280224,15.455487 5.88234997,15.7465512 6.64028118,15.7465512 L8.22716327,15.6667996 L8.22716327,18.6024732 C7.11646223,18.7084206 6.22580574,18.7613943 5.55577593,18.7613943 C5.06213102,18.7613943 4.63426663,18.7305415 4.27334701,18.6688359 C3.91126313,18.6071302 3.54976137,18.488376 3.18884175,18.3119911 C2.82734,18.1356062 2.54966474,17.857931 2.35581598,17.4783832 C2.16138508,17.0999998 2.06475176,16.6191617 2.06475176,16.0370333 L2.06475176,9.3984407 L0.160609687,9.3984407 L0.160609687,6.48896283 L2.06475176,6.48896283 L2.06475176,1.88723764 Z M13.8343989,7.91715671 C14.786761,6.75348199 16.0115592,6.17193569 17.5105399,6.17193569 C18.8505995,6.17193569 19.9345226,6.57302218 20.7640557,7.37519515 C21.5924244,8.17736812 22.0068998,9.27526233 22.0068998,10.6682956 L22.0068998,18.6021239 L18.5688494,18.6021239 L18.5688494,11.5409062 C18.5688494,10.8179027 18.3703436,10.2759411 17.973332,9.91443934 C17.5769025,9.55351971 17.0873325,9.37189564 16.5057862,9.37189564 C15.5353781,9.37189564 14.6808136,9.83061284 13.9403463,10.7474651 L13.9403463,18.6021239 L10.5017137,18.6021239 L10.5017137,0.0886936578 L13.8873726,0.0886936578 L13.8873726,6.96479461 L13.8343989,7.91715671 Z M32.163178,9.66295986 C31.668951,9.23975249 31.0693587,9.02785774 30.3644012,9.02785774 C29.6588616,9.02785774 29.0592693,9.23102056 28.5662065,9.63676408 C28.0719795,10.0419255 27.7547195,10.5798121 27.6138444,11.2498419 L33.0357885,11.2498419 C32.947305,10.615322 32.6562408,10.0861672 32.163178,9.66295986 Z M36.7119295,13.4188525 L36.7119295,13.5509956 L27.6930139,13.5509956 C27.7814974,14.2384893 28.0807114,14.8165428 28.5924023,15.2834098 C29.103511,15.7508589 29.7298812,15.9842924 30.4703486,15.9842924 C31.6165594,15.9842924 32.4274643,15.569817 32.9036454,14.7414482 L36.4744211,15.1110998 C35.9452664,16.3807219 35.1518254,17.333084 34.0935159,17.9681861 C33.0357885,18.6021239 31.8104082,18.9199661 30.4173749,18.9199661 C28.6011342,18.9199661 27.0887646,18.3209559 25.8814302,17.1217714 C24.6735137,15.9225868 24.0698466,14.3974103 24.0698466,12.5456598 C24.0698466,10.6939093 24.6647818,9.16931495 25.8552344,7.9701304 C27.0451049,6.77094584 28.5481605,6.17193569 30.3644012,6.17193569 C32.1806419,6.17193569 33.6924294,6.7802599 34.9003459,7.9969083 C36.1082624,9.21355671 36.7119295,11.0210655 36.7119295,13.4188525 Z M8.49174063,36.7006713 C7.9975136,36.2768818 7.39850345,36.0655692 6.6929638,36.0655692 C5.98800628,36.0655692 5.38783188,36.268732 4.8947691,36.6738934 C4.4011242,37.0796369 4.08328208,37.6175236 3.942407,38.2875534 L9.36493327,38.2875534 C9.27586762,37.6524513 8.98538554,37.1238787 8.49174063,36.7006713 Z M13.0410743,40.4559818 L13.0410743,40.588707 L4.02157646,40.588707 C4.11005998,41.2756186 4.40927399,41.8542542 4.92096488,42.3205391 C5.43265576,42.7879882 6.05844382,43.0214217 6.79891118,43.0214217 C7.94512204,43.0214217 8.75660907,42.6075284 9.23220799,41.7785775 L12.8029837,42.1488112 C12.273829,43.4184333 11.480388,44.3707954 10.4226606,45.0053154 C9.36493327,45.6398354 8.13897081,45.9570954 6.74593749,45.9570954 C4.92969681,45.9570954 3.41790929,45.3580852 2.20999281,44.1594828 C1.00207632,42.9602982 0.398409149,41.4345396 0.398409149,39.5833713 C0.398409149,37.7316207 0.993344399,36.2070264 2.18379703,35.0078418 C3.37366753,33.8086573 4.87730525,33.209065 6.6929638,33.209065 C8.50920449,33.209065 10.020992,33.8173892 11.2294906,35.0346197 C12.436825,36.2512682 13.0410743,38.0581948 13.0410743,40.4559818 Z M30.9992123,45.6400682 L30.9992123,38.5252946 C30.9992123,37.8203371 30.8094384,37.2911824 30.4304728,36.9384125 C30.0515072,36.5856427 29.5706691,36.4098399 28.9891228,36.4098399 C28.0542246,36.4098399 27.2171239,36.8685571 26.4760744,37.7848273 L26.4760744,45.6400682 L23.0380239,45.6400682 L23.0380239,38.5252946 C23.0380239,37.837801 22.8488322,37.3133033 22.4692844,36.9518015 C22.0903188,36.5902998 21.6100629,36.4098399 21.0279345,36.4098399 C20.0936183,36.4098399 19.2559355,36.8685571 18.5154682,37.7848273 L18.5154682,45.6400682 L15.0768356,45.6400682 L15.0768356,33.5265579 L18.4357166,33.5265579 L18.4357166,34.0027389 L18.383325,34.955101 C19.3176412,33.7914263 20.5255576,33.2092979 22.0064924,33.2092979 C23.8931706,33.2092979 25.1895706,33.9410333 25.8945281,35.4045041 C26.9522554,33.9410333 28.3097789,33.2092979 29.9676807,33.2092979 C31.3071582,33.2092979 32.3875885,33.6103843 33.2072254,34.4125573 C34.0274443,35.2153124 34.4378449,36.3132066 34.4378449,37.7056578 L34.4378449,45.6400682 L30.9992123,45.6400682 Z M45.9423907,37.2162624 C45.3602623,36.5904744 44.6197949,36.2772893 43.7209886,36.2772893 C42.8216002,36.2772893 42.0805507,36.5904744 41.4990044,37.2162624 C40.9174581,37.8420505 40.6263939,38.6314166 40.6263939,39.5831966 C40.6263939,40.5180949 40.9174581,41.3068789 41.4990044,41.9507129 C42.0805507,42.5939648 42.8216002,42.9158818 43.7209886,42.9158818 C44.6197949,42.9158818 45.3602623,42.5939648 45.9423907,41.9507129 C46.5245191,41.3068789 46.8155833,40.5180949 46.8155833,39.5831966 C46.8155833,38.6314166 46.5245191,37.8420505 45.9423907,37.2162624 Z M40.7055634,44.1057523 L40.7055634,45.6402429 L37.2675129,45.6402429 L37.2675129,27.1262305 L40.7055634,27.1262305 L40.7055634,33.1035251 C40.7055634,33.4033213 40.6962493,33.7910188 40.6787855,34.2671998 C40.6613216,34.7433809 40.6525897,35.0169813 40.6525897,35.0868367 C40.9523858,34.5402181 41.4460307,34.0913971 42.1341065,33.7380451 C42.8216002,33.3858574 43.6057272,33.2088904 44.4876518,33.2088904 C46.1624352,33.2088904 47.5595435,33.8131397 48.6795585,35.0210562 C49.7989915,36.2289726 50.3589991,37.7494921 50.3589991,39.5831966 C50.3589991,41.4174833 49.7949166,42.9380027 48.6667517,44.1453371 C47.5380047,45.3538357 46.1362395,45.9575029 44.461456,45.9575029 C43.631923,45.9575029 42.8786488,45.781118 42.1998871,45.4283481 C41.5205432,45.0761604 41.0228234,44.6349071 40.7055634,44.1057523 Z M56.9448508,43.4446291 C57.6148806,43.4446291 58.1748881,43.2641693 58.6242913,42.9026675 C59.0742765,42.5411658 59.298396,42.0079361 59.298396,41.3023965 L59.298396,40.4292039 C59.1225932,40.6061709 58.7698234,40.6940723 58.2412508,40.6940723 L56.9448508,40.6940723 C55.7986399,40.6940723 55.2258255,41.1347435 55.2258255,42.0166681 C55.2258255,42.4392933 55.3800896,42.7833312 55.6886176,43.0481996 C55.9971457,43.3124859 56.415696,43.4446291 56.9448508,43.4446291 Z M59.298396,37.7060071 L59.298396,37.5732818 C59.298396,37.1326106 59.1272502,36.7844978 58.7832123,36.5283613 C58.4391744,36.273389 57.9408725,36.1453208 57.2888887,36.1453208 C56.1426778,36.1453208 54.9254473,36.5242864 53.6389434,37.2822176 L52.2895698,34.6905818 C52.4659547,34.5846345 52.7040452,34.4484164 53.0038413,34.2801813 C53.3036375,34.1131105 53.9073047,33.8930659 54.815425,33.6188834 C55.7235453,33.3458652 56.6095448,33.209065 57.4740055,33.209065 C58.9724041,33.209065 60.2245623,33.5798808 61.229316,34.319766 C62.2346518,35.0608155 62.7370286,36.1802485 62.7370286,37.6792292 L62.7370286,45.6398354 L59.298396,45.6398354 L59.298396,44.5023564 C58.9985999,44.9610736 58.5358078,45.3185005 57.9100197,45.5740549 C57.2842316,45.8296093 56.6182767,45.9570954 55.9133192,45.9570954 C54.6786248,45.9570954 53.6651392,45.5787119 52.8716982,44.8201986 C52.0782571,44.0622674 51.6812456,43.1716109 51.6812456,42.1488112 C51.6812456,41.0031825 52.0736001,40.0950621 52.8583092,39.4250323 C53.6430183,38.7544204 54.7141346,38.4196965 56.0716581,38.4196965 L58.4525634,38.4196965 C59.0166458,38.4196965 59.298396,38.181606 59.298396,37.7060071 Z M74.6653639,35.0077254 L72.7082482,37.2291275 C71.8618334,36.4013409 70.8658117,35.9862833 69.7196008,35.9862833 C69.3138573,35.9862833 69.0094042,36.0701098 68.8074056,36.2371806 C68.6042428,36.4054158 68.5029524,36.5946075 68.5029524,36.8065022 C68.5029524,37.2291275 68.8027486,37.5382377 69.4017587,37.7320864 L71.4124303,38.3671886 C73.6338324,39.1070738 74.7445334,40.359232 74.7445334,42.122499 C74.7445334,43.110371 74.3259831,43.9957883 73.4883003,44.7804974 C72.6506175,45.5652065 71.4648219,45.9575611 69.9314956,45.9575611 C67.8329226,45.9575611 66.0516096,45.3230411 64.5881388,44.0528369 L66.4136935,41.6725137 C66.8543647,42.0963032 67.4184472,42.453148 68.1059408,42.7442122 C68.7940166,43.0346943 69.4192226,43.1802264 69.9838871,43.1802264 C70.3715847,43.1802264 70.6888447,43.092325 70.9362492,42.9159401 C71.1830717,42.7395551 71.3064829,42.5282425 71.3064829,42.280838 C71.3064829,41.9810418 71.2046104,41.7522653 71.0026119,41.5933443 C70.7994491,41.4344232 70.4426043,41.2760843 69.9314956,41.1171632 L67.8678503,40.508839 C65.9992181,39.9098289 65.0643198,38.7286903 65.0643198,36.9648412 C65.0643198,35.9245777 65.4962591,35.0391604 66.3607198,34.3068428 C67.2240163,33.5751074 68.3614952,33.2089486 69.7725745,33.2089486 C71.7471541,33.2089486 73.378278,33.8085409 74.6653639,35.0077254 Z M86.0382323,35.0077254 L84.0811166,37.2291275 C83.2347018,36.4013409 82.2386801,35.9862833 81.0924692,35.9862833 C80.6867257,35.9862833 80.3822725,36.0701098 80.1796919,36.2371806 C79.9771112,36.4054158 79.8758208,36.5946075 79.8758208,36.8065022 C79.8758208,37.2291275 80.1750348,37.5382377 80.7746271,37.7320864 L82.7852987,38.3671886 C85.0067008,39.1070738 86.1174018,40.359232 86.1174018,42.122499 C86.1174018,43.110371 85.6988514,43.9957883 84.8611686,44.7804974 C84.0234858,45.5652065 82.8376902,45.9575611 81.3037818,45.9575611 C79.2052089,45.9575611 77.424478,45.3230411 75.9610072,44.0528369 L77.7859798,41.6725137 C78.226651,42.0963032 78.7913156,42.453148 79.4788092,42.7442122 C80.166885,43.0346943 80.792091,43.1802264 81.3567555,43.1802264 C81.7444531,43.1802264 82.0617131,43.092325 82.3091176,42.9159401 C82.5559401,42.7395551 82.6793513,42.5282425 82.6793513,42.280838 C82.6793513,41.9810418 82.5774788,41.7522653 82.3754803,41.5933443 C82.1723175,41.4344232 81.8154727,41.2760843 81.3037818,41.1171632 L79.2407187,40.508839 C77.3715043,39.9098289 76.4371882,38.7286903 76.4371882,36.9648412 C76.4371882,35.9245777 76.8691275,35.0391604 77.7335882,34.3068428 C78.5968847,33.5751074 79.7343636,33.2089486 81.1454429,33.2089486 C83.1200225,33.2089486 84.7511464,33.8085409 86.0382323,35.0077254 Z M91.8830928,46.4336839 L92.1479612,45.6402429 L91.2747686,45.6402429 L87.1224465,33.5267325 L90.9575086,33.5267325 L93.5229485,42.1492187 L96.1151664,33.5267325 L99.8425347,33.5267325 L95.0038833,47.544385 C94.6866233,48.4787011 94.241295,49.1661947 93.6684806,49.6074481 C93.0950841,50.0481193 92.2801044,50.268746 91.2217949,50.268746 L88.8414717,50.268746 L88.8414717,47.386046 L90.5343012,47.386046 C91.2217949,47.386046 91.6717801,47.0682039 91.8830928,46.4336839 Z M6.87842992,63.3143022 C5.9790415,63.3143022 5.24730607,63.6280694 4.68322363,64.2532753 C4.11855906,64.8790634 3.8368089,65.6684295 3.8368089,66.6207916 C3.8368089,67.5725716 4.11855906,68.3619378 4.68322363,68.9877258 C5.24730607,69.6135139 5.9790415,69.926699 6.87842992,69.926699 C7.75977235,69.926699 8.48277586,69.6135139 9.04744043,68.9877258 C9.61094074,68.3619378 9.89385516,67.5725716 9.89385516,66.6207916 C9.89385516,65.6684295 9.61094074,64.8790634 9.04744043,64.2532753 C8.48277586,63.6280694 7.75977235,63.3143022 6.87842992,63.3143022 Z M11.4801551,71.1835142 C10.228579,72.3914307 8.69408848,72.9950979 6.87842992,72.9950979 C5.06218923,72.9950979 3.52828084,72.3914307 2.27612259,71.1835142 C1.02396435,69.9755977 0.398758426,68.4544962 0.398758426,66.6207916 C0.398758426,64.7870871 1.02396435,63.2665677 2.27612259,62.0586512 C3.52828084,60.8513168 5.06218923,60.2464854 6.87842992,60.2464854 C8.69408848,60.2464854 10.228579,60.8513168 11.4801551,62.0586512 C12.7323134,63.2665677 13.3581014,64.7870871 13.3581014,66.6207916 C13.3581014,68.4544962 12.7323134,69.9755977 11.4801551,71.1835142 Z M16.3732356,60.5639782 L16.3732356,57.1259278 C16.3732356,56.0152267 16.6904956,55.2037397 17.3255977,54.6920488 C17.9601177,54.1809401 18.7884864,53.9253857 19.8112861,53.9253857 L22.3243345,54.0837246 L22.3243345,57.231293 C21.6187948,57.1433916 21.1426138,57.0991498 20.8963734,57.0991498 C20.5255576,57.0991498 20.2519573,57.1695874 20.0761545,57.3104625 C19.8997696,57.4519197 19.8112861,57.716206 19.8112861,58.1039035 L19.8112861,60.5639782 L22.1392176,60.5639782 L22.1392176,63.4734561 L19.8112861,63.4734561 L19.8112861,72.6774886 L16.3732356,72.6774886 L16.3732356,63.4734561 L14.4690935,63.4734561 L14.4690935,60.5639782 L16.3732356,60.5639782 Z M32.1625959,66.541564 C32.1625959,67.5113899 32.4443461,68.304831 33.0090106,68.9218871 C33.5730931,69.5389432 34.3048285,69.8474713 35.2042169,69.8474713 C36.1210692,69.8474713 36.8615366,69.5430181 37.4262011,68.9346939 C37.9902836,68.3263697 38.2726159,67.5288538 38.2726159,66.541564 C38.2726159,65.5542742 37.9902836,64.7521012 37.4262011,64.1344629 C36.8615366,63.5174068 36.1210692,63.2082966 35.2042169,63.2082966 C34.3048285,63.2082966 33.5730931,63.5174068 33.0090106,64.1344629 C32.4443461,64.7521012 32.1625959,65.5542742 32.1625959,66.541564 Z M38.1928643,60.5636872 L41.6314969,60.5636872 L41.6314969,73.576586 C41.6314969,74.6523593 41.3223867,75.5424337 40.7053305,76.2479733 C40.0882744,76.9529308 39.1009846,77.3057007 37.7434611,77.3057007 L32.4798559,77.3057007 L32.4798559,74.3962228 L36.8970464,74.3962228 C37.760925,74.3962228 38.1928643,74.034721 38.1928643,73.3122997 L38.1928643,70.9849502 C37.8930681,71.4966411 37.3994232,71.9279983 36.7119295,72.280186 C36.0244359,72.6335379 35.2659225,72.8099228 34.4369717,72.8099228 C32.7616061,72.8099228 31.3732298,72.2318693 30.2712607,71.0775086 C29.1692916,69.9225658 28.6185981,68.4107783 28.6185981,66.541564 C28.6185981,64.6723496 29.1652167,63.155905 30.2584538,61.9922303 C31.3511089,60.8285556 32.7354103,60.2470093 34.4107759,60.2470093 C35.2921183,60.2470093 36.0727525,60.4228121 36.7515143,60.7755819 C37.430276,61.1283517 37.928578,61.578337 38.2458379,62.1243735 L38.2196422,61.8071135 C38.2015962,61.5952187 38.1928643,61.3664423 38.1928643,61.1196198 L38.1928643,60.5636872 Z M50.3060836,63.3143022 C49.4072773,63.3143022 48.6749597,63.6280694 48.1108773,64.2532753 C47.5462127,64.8790634 47.2644626,65.6684295 47.2644626,66.6207916 C47.2644626,67.5725716 47.5462127,68.3619378 48.1108773,68.9877258 C48.6749597,69.6135139 49.4072773,69.926699 50.3060836,69.926699 C51.1880081,69.926699 51.9104295,69.6135139 52.4750941,68.9877258 C53.0391765,68.3619378 53.3215088,67.5725716 53.3215088,66.6207916 C53.3215088,65.6684295 53.0391765,64.8790634 52.4750941,64.2532753 C51.9104295,63.6280694 51.1880081,63.3143022 50.3060836,63.3143022 Z M54.9083909,71.1835142 C53.6562327,72.3914307 52.1223243,72.9950979 50.3060836,72.9950979 C48.4898429,72.9950979 46.9559345,72.3914307 45.7043584,71.1835142 C44.451618,69.9755977 43.8264121,68.4544962 43.8264121,66.6207916 C43.8264121,64.7870871 44.451618,63.2665677 45.7043584,62.0586512 C46.9559345,60.8513168 48.4898429,60.2464854 50.3060836,60.2464854 C52.1223243,60.2464854 53.6562327,60.8513168 54.9083909,62.0586512 C56.159967,63.2665677 56.7863372,64.7870871 56.7863372,66.6207916 C56.7863372,68.4544962 56.159967,69.9755977 54.9083909,71.1835142 Z M64.6941444,63.3143022 C63.7947559,63.3143022 63.0630205,63.6280694 62.4989381,64.2532753 C61.9342735,64.8790634 61.6525233,65.6684295 61.6525233,66.6207916 C61.6525233,67.5725716 61.9342735,68.3619378 62.4989381,68.9877258 C63.0630205,69.6135139 63.7947559,69.926699 64.6941444,69.926699 C65.5754868,69.926699 66.2984903,69.6135139 66.8631549,68.9877258 C67.4266552,68.3619378 67.7089875,67.5725716 67.7089875,66.6207916 C67.7089875,65.6684295 67.4266552,64.8790634 66.8631549,64.2532753 C66.2984903,63.6280694 65.5754868,63.3143022 64.6941444,63.3143022 Z M69.2958696,71.1835142 C68.0437113,72.3914307 66.5098029,72.9950979 64.6941444,72.9950979 C62.8779037,72.9950979 61.3439953,72.3914307 60.091837,71.1835142 C58.8396788,69.9755977 58.2144729,68.4544962 58.2144729,66.6207916 C58.2144729,64.7870871 58.8396788,63.2665677 60.091837,62.0586512 C61.3439953,60.8513168 62.8779037,60.2464854 64.6941444,60.2464854 C66.5098029,60.2464854 68.0437113,60.8513168 69.2958696,62.0586512 C70.5480278,63.2665677 71.1738159,64.7870871 71.1738159,66.6207916 C71.1738159,68.4544962 70.5480278,69.9755977 69.2958696,71.1835142 Z M81.4886076,64.25345 C80.9064792,63.628244 80.166594,63.3144768 79.2672056,63.3144768 C78.3678171,63.3144768 77.6273498,63.628244 77.0452214,64.25345 C76.4636751,64.879238 76.1726108,65.6686042 76.1726108,66.6203841 C76.1726108,67.5552824 76.4636751,68.3440664 77.0452214,68.9879004 C77.6273498,69.6317345 78.3678171,69.9530694 79.2672056,69.9530694 C80.166594,69.9530694 80.9064792,69.6317345 81.4886076,68.9879004 C82.070736,68.3440664 82.3618003,67.5552824 82.3618003,66.6203841 C82.3618003,65.6686042 82.070736,64.879238 81.4886076,64.25345 Z M82.2820487,72.6774304 L82.2820487,71.143522 C81.9647887,71.6720946 81.4664867,72.113348 80.787725,72.4655357 C80.1089633,72.8183055 79.346375,72.9952725 78.4999603,72.9952725 C76.8245947,72.9952725 75.4274865,72.3910232 74.3080535,71.1831067 C73.1880384,69.9757724 72.628613,68.4546708 72.628613,66.6203841 C72.628613,64.7692158 73.1839635,63.2446214 74.2946645,62.0448547 C75.4053656,60.8456702 76.7983989,60.24666 78.4737645,60.24666 C79.3551069,60.24666 80.1398161,60.4230449 80.8273097,60.7752326 C81.5153855,61.1285846 82.0177624,61.5779877 82.3350223,62.1246063 C82.3350223,62.0361228 82.3257083,61.7147879 82.3088266,61.1594374 C82.2907806,60.6035048 82.2820487,60.1587586 82.2820487,59.8234527 L82.2820487,54.163418 L85.7206813,54.163418 L85.7206813,72.6774304 L82.2820487,72.6774304 Z M10.2637396,89.138858 L8.3066238,91.3602601 C7.46020907,90.5318913 6.46418733,90.1174159 5.31797646,90.1174159 C4.91223295,90.1174159 4.60777979,90.2012424 4.40578122,90.3683132 C4.2026184,90.5359662 4.10132806,90.7257401 4.10132806,90.9370527 C4.10132806,91.3602601 4.4011242,91.6693703 5.00013434,91.863219 L7.01080592,92.497739 C9.23220799,93.2382064 10.342909,94.4903646 10.342909,96.2536316 C10.342909,97.2409214 9.92435869,98.1269209 9.08667588,98.91163 C8.24957521,99.6963391 7.06319748,100.088694 5.52928908,100.088694 C3.43071611,100.088694 1.65056739,99.4535915 0.186514402,98.1839695 L2.01206914,95.8036463 C2.45274036,96.2268537 3.0168228,96.5836984 3.70431647,96.8747626 C4.39239227,97.1658268 5.0175982,97.3113589 5.58226277,97.3113589 C5.9699603,97.3113589 6.28722029,97.2234576 6.53462487,97.0470726 C6.78144732,96.8706877 6.90485855,96.6593751 6.90485855,96.4119705 C6.90485855,96.1121744 6.80298608,95.8833979 6.60098751,95.7244769 C6.39782469,95.5655558 6.04097997,95.4072169 5.52928908,95.2482958 L3.46622595,94.6399716 C1.59701157,94.0409615 0.662695453,92.8592408 0.662695453,91.0959738 C0.662695453,90.0557103 1.09521687,89.1697108 1.95909545,88.4379754 C2.82239191,87.7062399 3.95987085,87.3400812 5.37095015,87.3400812 C7.34552977,87.3400812 8.97665361,87.9396734 10.2637396,89.138858 Z M18.250949,90.4082472 C17.3521427,90.4082472 16.6198252,90.7214323 16.0557427,91.3466383 C15.4910782,91.9730084 15.209328,92.7623746 15.209328,93.7141546 C15.209328,94.6659345 15.4910782,95.4558828 16.0557427,96.0810887 C16.6198252,96.7074589 17.3521427,97.0200619 18.250949,97.0200619 C19.538035,97.0200619 20.4286915,96.4035879 20.9223364,95.1688935 L24.1490742,96.1736472 C23.7607946,97.3734138 23.0249842,98.3257759 21.940479,99.0307335 C20.8565559,99.735691 19.6172044,100.088461 18.2247533,100.088461 C16.4085126,100.088461 14.8792612,99.4847936 13.6358349,98.2768771 C12.3929907,97.0689607 11.7712775,95.5484412 11.7712775,93.7141546 C11.7712775,91.88045 12.3929907,90.3599306 13.6358349,89.1520141 C14.8792612,87.9446797 16.4085126,87.3398483 18.2247533,87.3398483 C19.6172044,87.3398483 20.8565559,87.6972752 21.940479,88.4109646 C23.0249842,89.1252362 23.7607946,90.0816732 24.1490742,91.2808577 L20.9223364,92.2599978 C20.6929778,91.6953332 20.344865,91.2453479 19.8774159,90.9106241 C19.4105489,90.5759002 18.8680052,90.4082472 18.250949,90.4082472 Z M26.8995728,85.0389275 C26.4763655,84.6157201 26.2650528,84.0958795 26.2650528,83.4782412 C26.2650528,82.8617672 26.4804404,82.3372695 26.9123796,81.9047481 C27.3449011,81.4728088 27.8600847,81.2568391 28.4602591,81.2568391 C29.0767331,81.2568391 29.601813,81.4728088 30.0337523,81.9047481 C30.4656916,82.3372695 30.6816612,82.8617672 30.6816612,83.4782412 C30.6816612,84.0958795 30.4656916,84.6157201 30.0337523,85.0389275 C29.601813,85.462717 29.0767331,85.6740296 28.4602591,85.6740296 C27.8426209,85.6740296 27.3227802,85.462717 26.8995728,85.0389275 Z M30.3376233,87.6573412 L30.3376233,99.7714337 L26.8995728,99.7714337 L26.8995728,90.566819 L25.2067434,90.566819 L25.2067434,87.6573412 L30.3376233,87.6573412 Z M40.6265104,90.8312217 C40.1322833,90.4080144 39.5332732,90.1967018 38.8277335,90.1967018 C38.1221939,90.1967018 37.5226016,90.3998646 37.0295388,90.805026 C36.5353118,91.2107695 36.2180518,91.748074 36.0771767,92.418686 L41.4991209,92.418686 C41.4106373,91.7835839 41.1201553,91.2550112 40.6265104,90.8312217 Z M45.1752619,94.5871143 L45.1752619,94.7192575 L36.1563462,94.7192575 C36.2448297,95.4067512 36.5440437,95.9848047 37.0557346,96.4516717 C37.5668434,96.9191208 38.1932135,97.1525543 38.9336809,97.1525543 C40.0798918,97.1525543 40.8907967,96.7380789 41.3669777,95.9097101 L44.9377535,96.2793617 C44.4085987,97.5495659 43.6151577,98.5013459 42.5568482,99.136448 C41.4991209,99.770968 40.2737405,100.088228 38.8807072,100.088228 C37.0644665,100.088228 35.5520969,99.4892178 34.3447625,98.2900333 C33.136846,97.0908487 32.5331789,95.5656722 32.5331789,93.7139217 C32.5331789,91.8627533 33.1281141,90.3375768 34.3185667,89.1389744 C35.5084372,87.9397899 37.0114928,87.3401976 38.8277335,87.3401976 C40.6439742,87.3401976 42.1557617,87.9485218 43.3636782,89.1651702 C44.5715947,90.3818186 45.1752619,92.1893274 45.1752619,94.5871143 Z M50.5178619,89.0860007 C51.4696419,87.9217439 52.7037541,87.3401976 54.2207808,87.3401976 C55.5602583,87.3401976 56.6447636,87.7412841 57.4737144,88.543457 C58.3026653,89.3462121 58.7165586,90.4435242 58.7165586,91.8365575 L58.7165586,99.770968 L55.2785082,99.770968 L55.2785082,92.709168 C55.2785082,91.9861645 55.0800024,91.444203 54.6835729,91.0827012 C54.2865613,90.7217816 53.7975734,90.5407397 53.215445,90.5407397 C52.2456191,90.5407397 51.3910545,90.9988747 50.6500051,91.915727 L50.6500051,99.770968 L47.2113725,99.770968 L47.2113725,87.6574576 L50.5708356,87.6574576 L50.5708356,88.1336386 L50.5178619,89.0860007 Z M67.2594679,90.4082472 C66.3606616,90.4082472 65.6283441,90.7214323 65.0642616,91.3466383 C64.499597,91.9730084 64.2178469,92.7623746 64.2178469,93.7141546 C64.2178469,94.6659345 64.499597,95.4558828 65.0642616,96.0810887 C65.6283441,96.7074589 66.3606616,97.0200619 67.2594679,97.0200619 C68.5465538,97.0200619 69.4372103,96.4035879 69.9308552,95.1688935 L73.1575931,96.1736472 C72.7693134,97.3734138 72.0335031,98.3257759 70.9489979,99.0307335 C69.8650747,99.735691 68.6257233,100.088461 67.2332721,100.088461 C65.4170314,100.088461 63.8877801,99.4847936 62.6443538,98.2768771 C61.4015096,97.0689607 60.7797964,95.5484412 60.7797964,93.7141546 C60.7797964,91.88045 61.4015096,90.3599306 62.6443538,89.1520141 C63.8877801,87.9446797 65.4170314,87.3398483 67.2332721,87.3398483 C68.6257233,87.3398483 69.8650747,87.6972752 70.9489979,88.4109646 C72.0335031,89.1252362 72.7693134,90.0816732 73.1575931,91.2808577 L69.9308552,92.2599978 C69.7014966,91.6953332 69.3533838,91.2453479 68.8859347,90.9106241 C68.4190677,90.5759002 67.876524,90.4082472 67.2594679,90.4082472 Z M82.5201392,90.8312217 C82.0264943,90.4080144 81.426902,90.1967018 80.7219445,90.1967018 C80.0164048,90.1967018 79.4168126,90.3998646 78.9231677,90.805026 C78.4295227,91.2107695 78.1122628,91.748074 77.9713877,92.418686 L83.3933318,92.418686 C83.3048483,91.7835839 83.0137841,91.2550112 82.5201392,90.8312217 Z M87.0694728,94.5871143 L87.0694728,94.7192575 L78.0505571,94.7192575 C78.1384585,95.4067512 78.4382547,95.9848047 78.9499456,96.4516717 C79.4610543,96.9191208 80.0868424,97.1525543 80.8273097,97.1525543 C81.9735206,97.1525543 82.7850076,96.7380789 83.2606065,95.9097101 L86.8313823,96.2793617 C86.3028097,97.5495659 85.5087865,98.5013459 84.4510592,99.136448 C83.3933318,99.770968 82.1673694,100.088228 80.774336,100.088228 C78.9580954,100.088228 77.4463078,99.4892178 76.2383914,98.2900333 C75.0304749,97.0908487 74.4268077,95.5656722 74.4268077,93.7139217 C74.4268077,91.8627533 75.0223251,90.3375768 76.2121956,89.1389744 C77.4020661,87.9397899 78.9057038,87.3401976 80.7219445,87.3401976 C82.537603,87.3401976 84.0493906,87.9485218 85.2578892,89.1651702 C86.4652235,90.3818186 87.0694728,92.1893274 87.0694728,94.5871143 Z"></path>
</svg>
